<svg width="18" height="18" viewBox="0 0 18 18" fill="none" xmlns="http://www.w3.org/2000/svg">
<path d="M9.01799 10.963C6.21172 10.963 4.31016 12.0855 4.23017 12.1334C4.10662 12.2104 4.01829 12.3328 3.98423 12.4744C3.95018 12.6159 3.97313 12.7651 4.04814 12.8899C4.12314 13.0147 4.24418 13.1049 4.38515 13.1413C4.52612 13.1776 4.67572 13.157 4.80166 13.084C4.81835 13.074 6.51186 12.0848 9.03952 12.0848C10.5662 12.0919 12.0717 12.442 13.4448 13.1094C13.519 13.1448 13.6002 13.1632 13.6825 13.1631C13.7872 13.1628 13.8898 13.133 13.9784 13.0771C14.067 13.0211 14.138 12.9414 14.1834 12.8469C14.2465 12.7141 14.2544 12.5616 14.2052 12.423C14.156 12.2845 14.0538 12.1711 13.921 12.1078C12.3931 11.3638 10.7175 10.9725 9.01799 10.963Z" fill="#FF0000"/>
<path d="M9.01525 10.1903C9.19083 10.1901 9.35914 10.1203 9.48328 9.99609C9.60742 9.87192 9.67725 9.70359 9.67743 9.52802V7.08235C9.67488 6.90839 9.60398 6.74243 9.48006 6.62032C9.35614 6.4982 9.18916 6.42975 9.01518 6.42975C8.84121 6.42975 8.67422 6.4982 8.5503 6.62032C8.42638 6.74243 8.35549 6.90839 8.35294 7.08235V9.52802C8.35316 9.70361 8.42301 9.87194 8.54718 9.9961C8.67134 10.1203 8.83966 10.1901 9.01525 10.1903Z" fill="#FF0000"/>
<path d="M17.2966 6.502H16.7164C16.7069 6.502 16.698 6.50442 16.6879 6.50485C16.1628 4.88796 15.1391 3.47894 13.7636 2.47991C12.3881 1.48089 10.7315 0.943195 9.03148 0.943971C7.33146 0.944746 5.67537 1.48395 4.30079 2.48423C2.9262 3.48451 1.90375 4.89447 1.38012 6.51184C1.34798 6.50624 1.31548 6.50296 1.28288 6.502H0.702829C0.516287 6.50222 0.337448 6.57644 0.205556 6.70836C0.0736639 6.84027 -0.000513233 7.01913 -0.000701904 7.20567V10.5185C-0.000513167 10.7051 0.0736686 10.8839 0.205565 11.0158C0.337461 11.1477 0.5163 11.2219 0.702829 11.2221H1.28302C1.28872 11.2221 1.29399 11.2205 1.2997 11.2204C1.77972 12.9015 2.79431 14.3804 4.18991 15.4335C5.58551 16.4865 7.28616 17.0562 9.03445 17.0564C10.7827 17.0566 12.4835 16.4872 13.8793 15.4345C15.2752 14.3818 16.2901 12.9031 16.7705 11.2221H17.2959C17.4824 11.2219 17.6612 11.1477 17.7931 11.0158C17.925 10.8839 17.9991 10.7051 17.9993 10.5185V7.20567C17.9991 7.01927 17.9251 6.84055 17.7933 6.70866C17.6616 6.57676 17.483 6.50245 17.2966 6.502ZM15.9911 9.00056C15.991 10.3762 15.5831 11.7209 14.8188 12.8646C14.0545 14.0083 12.9682 14.8998 11.6973 15.4261C10.4263 15.9525 9.02789 16.0902 7.67873 15.8217C6.32957 15.5533 5.09031 14.8908 4.11766 13.9181C3.14501 12.9453 2.48266 11.706 2.21437 10.3568C1.94607 9.0076 2.08388 7.60916 2.61038 6.33829C3.13687 5.06743 4.02839 3.98123 5.17221 3.21706C6.31603 2.45288 7.66077 2.04504 9.03637 2.04513C10.8804 2.04724 12.6482 2.78075 13.952 4.08471C15.2558 5.38866 15.9892 7.15658 15.9911 9.00056Z" fill="#FF0000"/>
<path d="M13.9123 6.31749C13.8283 6.21524 13.7072 6.15053 13.5755 6.13759C13.4438 6.12465 13.3123 6.16453 13.2101 6.24848L12.5087 6.8241L11.8073 6.24848C11.7049 6.16501 11.5737 6.12551 11.4423 6.13864C11.3108 6.15177 11.19 6.21646 11.1062 6.31854C11.0224 6.42061 10.9824 6.55174 10.9951 6.6832C11.0078 6.81467 11.0721 6.93573 11.1739 7.01988L11.722 7.46974L11.1739 7.91946C11.0716 8.00346 11.0068 8.12465 10.9939 8.25639C10.9809 8.38812 11.0208 8.51961 11.1048 8.62193C11.1888 8.72424 11.31 8.78899 11.4418 8.80195C11.5735 8.8149 11.705 8.775 11.8073 8.69101L12.5087 8.11524L13.2101 8.69101C13.3124 8.77498 13.4439 8.81487 13.5756 8.8019C13.7073 8.78893 13.8285 8.72416 13.9125 8.62185C13.9964 8.51954 14.0363 8.38806 14.0233 8.25634C14.0104 8.12461 13.9456 8.00344 13.8433 7.91946L13.2952 7.46974L13.8433 7.01988C13.9456 6.93589 14.0103 6.8147 14.0233 6.68298C14.0362 6.55126 13.9963 6.41979 13.9123 6.31749Z" fill="#FF0000"/>
<path d="M4.24971 8.62186C4.29129 8.67252 4.34243 8.7145 4.40023 8.74539C4.45803 8.77628 4.52135 8.79548 4.58658 8.8019C4.6518 8.80833 4.71764 8.80184 4.78036 8.78281C4.84308 8.76379 4.90143 8.73259 4.95209 8.69101L5.65348 8.11524L6.35487 8.69101C6.45719 8.775 6.58868 8.81491 6.72041 8.80195C6.85215 8.789 6.97334 8.72424 7.05733 8.62193C7.14132 8.51962 7.18123 8.38813 7.16827 8.25639C7.15532 8.12465 7.09056 8.00346 6.98824 7.91947L6.44014 7.46975L6.98824 7.01988C7.09004 6.93574 7.15433 6.81467 7.16703 6.68321C7.17972 6.55175 7.1398 6.42061 7.05599 6.31854C6.97218 6.21647 6.85133 6.15178 6.71991 6.13864C6.58849 6.12551 6.45722 6.16501 6.35487 6.24848L5.65348 6.82411L4.95209 6.24848C4.84974 6.16501 4.71848 6.12551 4.58706 6.13864C4.45564 6.15178 4.33479 6.21647 4.25098 6.31854C4.16717 6.42061 4.12724 6.55175 4.13993 6.68321C4.15263 6.81467 4.21692 6.93574 4.31872 7.01988L4.86682 7.46975L4.31872 7.91947C4.21642 8.00346 4.15169 8.12465 4.13875 8.25637C4.1258 8.38809 4.16572 8.51956 4.24971 8.62186Z" fill="#FF0000"/>
</svg>
