<svg width="30" height="30" viewBox="0 0 30 30" fill="none" xmlns="http://www.w3.org/2000/svg">
<path d="M21.5005 15.498C18.188 15.498 15.5005 18.1855 15.5005 21.498C15.5005 22.623 15.813 23.6855 16.3755 24.5855C17.413 26.323 19.313 27.498 21.5005 27.498C23.688 27.498 25.6005 26.323 26.6255 24.5855C27.1755 23.6855 27.5005 22.623 27.5005 21.498C27.5005 18.1855 24.813 15.498 21.5005 15.498ZM24.4755 20.7105L21.2755 23.6605C21.1005 23.823 20.863 23.9105 20.638 23.9105C20.4005 23.9105 20.163 23.823 19.9755 23.6355L18.5005 22.1605C18.138 21.798 18.138 21.198 18.5005 20.8355C18.863 20.473 19.463 20.473 19.8255 20.8355L20.663 21.673L23.2005 19.323C23.5755 18.973 24.1755 18.998 24.5255 19.373C24.8755 19.7605 24.8505 20.3605 24.4755 20.7105Z" fill="white"/>
<path d="M27.5 10.9133C27.5 12.4008 27.2625 13.7758 26.85 15.0508C26.775 15.3133 26.4625 15.3883 26.2375 15.2258C24.875 14.2133 23.2125 13.6758 21.5 13.6758C17.1625 13.6758 13.625 17.2133 13.625 21.5508C13.625 22.9008 13.975 24.2258 14.6375 25.4008C14.8375 25.7508 14.6 26.2007 14.225 26.0632C11.2125 25.0382 5.125 21.3008 3.15 15.0508C2.7375 13.7758 2.5 12.4008 2.5 10.9133C2.5 7.05078 5.6125 3.92579 9.45 3.92579C11.7125 3.92579 13.7375 5.02578 15 6.71328C16.2625 5.02578 18.2875 3.92579 20.55 3.92579C24.3875 3.92578 27.5 7.05078 27.5 10.9133Z" fill="white"/>
</svg>
