<svg width="30" height="30" viewBox="0 0 30 30" fill="none" xmlns="http://www.w3.org/2000/svg">
<path d="M25.8505 17.3855V17.373C24.7505 16.2105 23.213 15.498 21.5005 15.498C18.188 15.498 15.5005 18.1855 15.5005 21.498C15.5005 23.0355 16.088 24.4355 17.038 25.498C18.138 26.723 19.7255 27.498 21.5005 27.498C24.813 27.498 27.5005 24.8105 27.5005 21.498C27.5005 19.9105 26.8755 18.4605 25.8505 17.3855ZM23.738 22.5105H22.438V23.873C22.438 24.3855 22.013 24.8105 21.5005 24.8105C20.988 24.8105 20.563 24.3855 20.563 23.873V22.5105H19.263C18.738 22.5105 18.3255 22.098 18.3255 21.573C18.3255 21.0605 18.7255 20.648 19.2505 20.6355H20.563V19.3855C20.563 19.3605 20.563 19.3355 20.5755 19.3105C20.6005 18.8355 21.013 18.448 21.5005 18.448C22.0005 18.448 22.413 18.848 22.438 19.348V20.6355H23.738C24.263 20.6355 24.6755 21.0605 24.6755 21.573C24.6755 22.098 24.263 22.5105 23.738 22.5105Z" fill="white"/>
<path d="M27.5 10.9133C27.5 12.4008 27.2625 13.7757 26.85 15.0507C26.775 15.3132 26.4625 15.3882 26.2375 15.2257C24.875 14.2132 23.2125 13.6757 21.5 13.6757C17.1625 13.6757 13.625 17.2132 13.625 21.5507C13.625 22.9007 13.975 24.2257 14.6375 25.4007C14.8375 25.7507 14.6 26.2007 14.225 26.0632C11.2125 25.0382 5.125 21.3007 3.15 15.0507C2.7375 13.7757 2.5 12.4008 2.5 10.9133C2.5 7.05077 5.6125 3.92578 9.45 3.92578C11.7125 3.92578 13.7375 5.02577 15 6.71327C16.2625 5.02577 18.2875 3.92578 20.55 3.92578C24.3875 3.92577 27.5 7.05077 27.5 10.9133Z" fill="white"/>
</svg>
