<svg width="30" height="30" viewBox="0 0 30 30" fill="none" xmlns="http://www.w3.org/2000/svg">
<path d="M24.4959 5.50406H19.4981V4.50469C19.4981 3.40031 18.6028 2.50594 17.4984 2.50594H12.5006C11.3962 2.50594 10.5009 3.40125 10.5009 4.50469V5.50406H5.50311V6.50344H6.53343L7.53374 25.4962C7.53374 26.6006 8.42905 27.4959 9.53342 27.4959H20.5294C21.6337 27.4959 22.529 26.6006 22.529 25.4962L23.5125 6.50344H24.4978V5.50406H24.4959ZM11.5012 4.50375C11.5012 3.9525 11.9503 3.50437 12.5006 3.50437H17.4984C18.0497 3.50437 18.4978 3.9525 18.4978 4.50375V5.50312H11.5003L11.5012 4.50375ZM21.5306 25.4437L21.5287 25.4691V25.4953C21.5287 26.0456 21.0806 26.4947 20.5294 26.4947H9.53342C8.98311 26.4947 8.53405 26.0456 8.53405 25.4953V25.4691L8.53311 25.4428L7.53467 6.5025H22.5112L21.5306 25.4437Z" fill="white"/>
<path d="M14.5003 8.50218H15.4997V24.4959H14.5003V8.50218Z" fill="white"/>
<path d="M12.5231 24.4641L11.5003 8.50125L10.5028 8.565L11.5256 24.5278L12.5231 24.4641Z" fill="white"/>
<path d="M19.5047 8.53406L18.5072 8.47125L17.4984 24.465L18.4959 24.5278L19.5047 8.53406Z" fill="white"/>
</svg>
